Coordinates
version=1
nRows=29
nColumns=22
inDegrees=yes

Units are S.I. units (second, meters, Newtons, ...)
If the header above contains a line with 'inDegrees', this indicates whether rotational values are in degrees (yes) or radians (no).

endheader
time	pelvis_tilt	pelvis_list	pelvis_rotation	pelvis_tx	pelvis_ty	pelvis_tz	hip_flexion_r	hip_adduction_r	hip_rotation_r	knee_angle_r	ankle_angle_r	subtalar_angle_r	hip_flexion_l	hip_adduction_l	hip_rotation_l	knee_angle_l	ankle_angle_l	subtalar_angle_l	lumbar_extension	lumbar_bending	lumbar_rotation
      1.09000000	    -12.85935052	      1.01659369	    -31.13385561	     -1.38954478	      0.84390665	     -0.46244010	     24.88294962	     -1.14766868	      6.50990860	    -51.23546874	     13.24652125	      8.85241135	      4.91666917	     -5.52819047	     -3.85625898	    -24.24062980	     30.54227226	      2.20845165	     -3.19267768	      4.33913276	      6.89719896
      1.10000000	    -12.82969195	      0.94692038	    -30.95575027	     -1.38519356	      0.84275365	     -0.46060621	     26.16018482	     -0.92451792	      6.79825395	    -53.93917231	     12.11516894	      8.83387499	      4.62289810	     -5.55831320	     -3.60893382	    -24.43169263	     30.67811465	      2.34335924	     -3.52805852	      4.31405261	      6.58566639
      1.11000000	    -12.80000804	      0.89312375	    -30.78641833	     -1.38079666	      0.84158027	     -0.45861477	     27.47394649	     -0.70925701	      7.04820606	    -56.59365731	     11.12173902	      8.75731943	      4.29810107	     -5.58136716	     -3.39206374	    -24.56887367	     30.79164474	      2.49489806	     -3.86004764	      4.26850450	      6.28493129
      1.12000000	    -12.76805401	      0.85646884	    -30.62431504	     -1.37633394	      0.84041454	     -0.45648067	     28.80990770	     -0.51146619	      7.25874060	    -59.15308399	     10.33081087	      8.64117932	      3.93998417	     -5.58922114	     -3.18759154	    -24.65042546	     30.86217593	      2.64196409	     -4.19035334	      4.20389877	      5.98488197
      1.13000000	    -12.75027261	      0.84359951	    -30.43653743	     -1.37178484	      0.83920577	     -0.45424287	     30.18357910	     -0.36720155	      7.36406741	    -61.59191599	      9.84175674	      8.45203267	      3.59845319	     -5.59187786	     -3.00615346	    -24.72564447	     30.94422379	      2.81216604	     -4.49614125	      4.12241034	      5.66133233
      1.14000000	    -12.73352048	      0.84917800	    -30.23672093	     -1.36715080	      0.83804942	     -0.45190050	     31.56757848	     -0.26656742	      7.40732167	    -63.85529198	      9.62434677	      8.20878553	      3.23734767	     -5.57840088	     -2.80375024	    -24.75380563	     30.95890562	      2.96556555	     -4.80123143	      4.02671246	      5.32754806
      1.15000000	    -12.72694979	      0.86896687	    -30.01197751	     -1.36240145	      0.83695527	     -0.44947038	     32.96130007	     -0.21766107	      7.36718595	    -65.91124669	      9.67299275	      7.92213111	      2.86610502	     -5.55476388	     -2.55552707	    -24.73780343	     30.91568263	      3.10750714	     -5.09482997	      3.92920153	      4.96473276
      1.16000000	    -12.76861823	      0.87615675	    -29.76119848	     -1.35758631	      0.83591740	     -0.44695542	     34.39000145	     -0.18135481	      7.21977856	    -67.73867845	      9.91966254	      7.37778896	      2.53992478	     -5.58070027	     -2.30468501	    -24.73710951	     30.85725489	      3.26907033	     -5.36102586	      3.87702190	      4.59440674
      1.17000000	    -12.82583712	      0.88330307	    -29.47459619	     -1.35263643	      0.83501238	     -0.44440156	     35.82375262	     -0.20835697	      6.96690097	    -69.31912245	     10.35264161	      6.80545845	      2.20367014	     -5.61097694	     -1.99261253	    -24.68510773	     30.72139397	      3.42416369	     -5.62553706	      3.84740983	      4.21834430
      1.18000000	    -12.92202554	      0.87107223	    -29.15569729	     -1.34756886	      0.83425664	     -0.44176738	     37.27039353	     -0.25035324	      6.62613563	    -70.64429963	     10.85236296	      6.19466595	      1.88422011	     -5.68456809	     -1.64096515	    -24.61198026	     30.50684111	      3.58258860	     -5.87233551	      3.86984116	      3.82485232
      1.19000000	    -13.05508083	      0.81844225	    -28.81529654	     -1.34234496	      0.83368334	     -0.43903621	     38.71015223	     -0.29178477	      6.19224095	    -71.70469843	     11.38486411	      5.51595224	      1.56160856	     -5.82194155	     -1.27422213	    -24.51380653	     30.22793843	      3.75412642	     -6.11472518	      3.96991110	      3.42568209
      1.20000000	    -13.22883592	      0.72423680	    -28.45329351	     -1.33693145	      0.83330291	     -0.43618230	     40.13752788	     -0.32997479	      5.66823146	    -72.50071324	     11.89695111	      4.87222063	      1.22685872	     -6.02481608	     -0.87279090	    -24.36696707	     29.87353961	      3.93443705	     -6.34223564	      4.14902475	      3.03737145
      1.21000000	    -13.43134943	      0.57266876	    -28.08065215	     -1.33129157	      0.83315301	     -0.43316113	     41.52041553	     -0.34274977	      5.06654729	    -73.03508658	     12.39247970	      4.21107781	      0.85918870	     -6.30769372	     -0.47830789	    -24.17605500	     29.43155338	      4.13633216	     -6.56931599	      4.41797968	      2.66261591
      1.22000000	    -13.65476346	      0.36668871	    -27.70731996	     -1.32539881	      0.83325158	     -0.42993409	     42.84341840	     -0.32577852	      4.40174632	    -73.31548765	     12.85980155	      3.57823157	      0.44673590	     -6.66525163	     -0.09879933	    -23.93482452	     28.88827818	      4.36184141	     -6.79655654	      4.76898255	      2.30576468
      1.23000000	    -13.89489795	      0.11088824	    -27.33531099	     -1.31922941	      0.83361295	     -0.42649050	     44.09500566	     -0.28432556	      3.67771417	    -73.35041514	     13.29633433	      3.02059857	     -0.01371582	     -7.09005930	      0.27581973	    -23.63916958	     28.23929957	      4.60522632	     -7.01993111	      5.19456378	      1.97666156
      1.24000000	    -14.14065108	     -0.18332320	    -26.97714024	     -1.31277828	      0.83425185	     -0.42277437	     45.26158868	     -0.21018075	      2.92271450	    -73.15752762	     13.70794747	      2.49491066	     -0.52446183	     -7.57246895	      0.60773433	    -23.29756594	     27.45742216	      4.87951077	     -7.24113062	      5.67452902	      1.65367312
      1.25000000	    -14.39520819	     -0.51068189	    -26.63052250	     -1.30602396	      0.83516425	     -0.41879683	     46.33962894	     -0.11004832	      2.13445945	    -72.74878036	     14.09591223	      2.03795285	     -1.08060128	     -8.10440104	      0.92911258	    -22.90688271	     26.55310194	      5.16879008	     -7.45063801	      6.20638818	      1.36000587
      1.26000000	    -14.65472091	     -0.86176665	    -26.29327039	     -1.29895411	      0.83635309	     -0.41455869	     47.32059459	      0.00898839	      1.31964268	    -72.13943720	     14.46516857	      1.64294037	     -1.67621517	     -8.67540137	      1.24116187	    -22.47200580	     25.51334282	      5.46510271	     -7.64527435	      6.77911427	      1.07897396
      1.27000000	    -14.91465083	     -1.21701092	    -25.97054531	     -1.29157193	      0.83780849	     -0.41004991	     48.20393134	      0.14069432	      0.49906536	    -71.34657437	     14.80821374	      1.27388423	     -2.29598151	     -9.26582310	      1.52504853	    -22.01044192	     24.31774745	      5.77822107	     -7.81705936	      7.36951051	      0.79383576
      1.28000000	    -15.17528949	     -1.56785292	    -25.65045411	     -1.28388843	      0.83952222	     -0.40528884	     48.98835857	      0.27454028	     -0.33154186	    -70.38397957	     15.10629377	      0.90213461	     -2.91989404	     -9.86846937	      1.79588443	    -21.53922141	     22.95083478	      6.12253953	     -7.96267199	      7.96800345	      0.48004685
      1.29000000	    -15.45273009	     -1.90039361	    -25.31720777	     -1.27588424	      0.84145124	     -0.40034014	     49.68212872	      0.39520610	     -1.16842620	    -69.25882420	     15.37898620	      0.68575883	     -3.52247704	    -10.46402482	      2.14209042	    -21.05177620	     21.44871786	      6.36553715	     -8.05352639	      8.57652583	      0.13511786
      1.30000000	    -15.72952350	     -2.20899567	    -24.97470451	     -1.26757962	      0.84359165	     -0.39518409	     50.27441423	      0.48567249	     -2.03498643	    -67.99396546	     15.57631529	      0.47229665	     -4.08441790	    -11.05010984	      2.48024573	    -20.60370106	     19.75321802	      6.62611064	     -8.10639146	      9.16967470	     -0.21175291
      1.31000000	    -16.02813943	     -2.51214413	    -24.68119381	     -1.25899551	      0.84591368	     -0.38969155	     50.74956701	      0.66039423	     -2.85236856	    -66.56166350	     15.78104528	      0.09365618	     -4.62105847	    -11.65366890	      2.76666292	    -20.17701430	     17.90720732	      7.08464002	     -8.10911568	      9.77073248	     -0.51786311
      1.32000000	    -16.34224220	     -2.75693518	    -24.35637438	     -1.25008779	      0.84834141	     -0.38407213	     51.13420425	      0.78652600	     -3.66119251	    -65.00263338	     15.90896008	     -0.08055745	     -5.06250723	    -12.20391144	      3.14661367	    -19.81343871	     15.90585743	      7.38309416	     -8.03194376	     10.33942601	     -0.88441954
      1.33000000	    -16.66564045	     -2.95884630	    -24.05144619	     -1.24083475	      0.85084925	     -0.37821452	     51.40561917	      0.92351212	     -4.44151786	    -63.32223007	     15.95460918	     -0.20822153	     -5.43673407	    -12.71610248	      3.50549922	    -19.51606089	     13.74728977	      7.70960483	     -7.88800134	     10.87919550	     -1.24095574
      1.34000000	    -16.99075333	     -3.09189619	    -23.74975834	     -1.23123803	      0.85338106	     -0.37218492	     51.56477286	      1.04413142	     -5.16772667	    -61.53814444	     15.92318154	     -0.20402142	     -5.70394194	    -13.15002435	      3.90516697	    -19.33577340	     11.44086538	      7.88698026	     -7.67202286	     11.36305661	     -1.60723568
      1.35000000	    -17.29673067	     -3.23355314	    -23.50795648	     -1.22124456	      0.85594587	     -0.36582307	     51.52939661	      1.25055503	     -5.86266047	    -59.63606284	     15.88874206	     -0.18031187	     -5.93566967	    -13.58590350	      4.16997036	    -19.28686155	      9.00887968	      8.30692136	     -7.44392563	     11.84809277	     -1.89167099
      1.36000000	    -17.57342427	     -3.29752477	    -23.28443014	     -1.21087229	      0.85844150	     -0.35931056	     51.35675845	      1.42803268	     -6.50133678	    -57.68529315	     15.73573575	     -0.05093102	     -6.06597160	    -13.91061982	      4.47128881	    -19.40267648	      6.45288798	      8.61796058	     -7.17615981	     12.25553855	     -2.14884504
      1.37000000	    -17.81769272	     -3.31174925	    -23.12991899	     -1.20011241	      0.86082509	     -0.35251775	     51.01794640	      1.65674553	     -7.04367972	    -55.69034404	     15.50580575	      0.19736684	     -6.14259675	    -14.15574660	      4.72671778	    -19.66443046	      3.80042982	      9.10539458	     -6.88506380	     12.60364931	     -2.32540918
